<svg width="22" height="23" viewBox="0 0 22 23" fill="none" xmlns="http://www.w3.org/2000/svg">
<g filter="url(#filter0_d_80_314)">
<circle cx="11.1749" cy="11.3012" r="8.21126" fill="url(#paint0_linear_80_314)"/>
</g>
<circle cx="7.3921" cy="13.0108" r="0.670389" fill="white"/>
<circle cx="6.63378" cy="13.5503" r="0.539516" fill="white"/>
<path d="M7.31146 12.2482C7.31146 12.2482 8.14327 12.7714 8.98021 12.7423C9.75471 12.7154 10.6346 12.2482 10.6346 12.2482" stroke="black" stroke-width="0.316795"/>
<path d="M12.908 14.1764C12.908 14.1764 12.4032 13.773 11.9038 13.8056C11.4417 13.8358 10.9233 14.2147 10.9233 14.2147" stroke="black" stroke-width="0.316795"/>
<path d="M12.4148 12.2482C12.4148 12.2482 13.2466 12.7714 14.0835 12.7423C14.858 12.7154 15.7379 12.2482 15.7379 12.2482" stroke="black" stroke-width="0.316795"/>
<defs>
<filter id="filter0_d_80_314" x="0.429325" y="0.555606" width="21.4912" height="21.4912" filterUnits="userSpaceOnUse" color-interpolation-filters="sRGB">
<feFlood flood-opacity="0" result="BackgroundImageFix"/>
<feColorMatrix in="SourceAlpha" type="matrix" values="0 0 0 0 0 0 0 0 0 0 0 0 0 0 0 0 0 0 127 0" result="hardAlpha"/>
<feOffset/>
<feGaussianBlur stdDeviation="1.26718"/>
<feComposite in2="hardAlpha" operator="out"/>
<feColorMatrix type="matrix" values="0 0 0 0 0 0 0 0 0 0 0 0 0 0 0 0 0 0 0.25 0"/>
<feBlend mode="normal" in2="BackgroundImageFix" result="effect1_dropShadow_80_314"/>
<feBlend mode="normal" in="SourceGraphic" in2="effect1_dropShadow_80_314" result="shape"/>
</filter>
<linearGradient id="paint0_linear_80_314" x1="12.4185" y1="16.7803" x2="9.96634" y2="3.96235" gradientUnits="userSpaceOnUse">
<stop stop-color="#00A3FE"/>
<stop offset="1" stop-color="#0023EA"/>
</linearGradient>
</defs>
</svg>
